<svg xmlns="http://www.w3.org/2000/svg" viewBox="0 0 846.04 665.82"><title>ara</title><path d="M662.63,494.42h-31.1V473.06q-5.53,4.22-10.83,8.58a89.58,89.58,0,0,1-11.48,8,62.21,62.21,0,0,1-13.66,5.89,60.47,60.47,0,0,1-17.37,2.25,44.1,44.1,0,0,1-16.57-3A37.28,37.28,0,0,1,549,486.57a35.27,35.27,0,0,1-8-12.35,42.22,42.22,0,0,1-2.76-15.41,40.18,40.18,0,0,1,4-18.1,49.68,49.68,0,0,1,10.9-14.46,77.17,77.17,0,0,1,16.13-11.34,167.59,167.59,0,0,1,19.55-8.87q10.32-3.92,21.29-7t21.44-5.67v-9.74a66,66,0,0,0-2.11-18,30.69,30.69,0,0,0-6-11.85,22.17,22.17,0,0,0-9.52-6.47,37.84,37.84,0,0,0-12.57-2,34,34,0,0,0-12.79,2,19.88,19.88,0,0,0-7.78,5.38,18.09,18.09,0,0,0-3.85,7.63,37.32,37.32,0,0,0-1,8.65,45.9,45.9,0,0,1-.65,7.85,18.51,18.51,0,0,1-2.4,6.61,13.39,13.39,0,0,1-4.72,4.58,15,15,0,0,1-7.63,1.74,15.27,15.27,0,0,1-11.77-5.23,17.2,17.2,0,0,1-3.34-5.81,22,22,0,0,1-1.16-7.27,23.3,23.3,0,0,1,5.09-14.39,44.38,44.38,0,0,1,13.66-11.56A78.68,78.68,0,0,1,583,338a100.33,100.33,0,0,1,24.13-2.83q15.4,0,26,3t17.15,8.36a30.78,30.78,0,0,1,9.45,13.08,47.86,47.86,0,0,1,2.91,17Zm-31.1-91q-6.69,2.18-13.88,4.94t-14.1,6.18A137.91,137.91,0,0,0,590.39,422a72.28,72.28,0,0,0-11,8.5,39,39,0,0,0-7.49,9.59,22,22,0,0,0-2.76,10.61,28.33,28.33,0,0,0,2.11,10.83,30.37,30.37,0,0,0,5.6,9,26.69,26.69,0,0,0,8.07,6.1,21.28,21.28,0,0,0,9.52,2.25,35.26,35.26,0,0,0,10-1.38,49.69,49.69,0,0,0,9.16-3.71,79.38,79.38,0,0,0,8.87-5.45q4.43-3.12,9.08-6.61Z" transform="translate(-101.15 -106.24)" style="fill:#00968c;stroke:#2ab8ae;stroke-miterlimit:1;stroke-width:4px"/><path d="M710.75,338.32h30.81v29.51a135.12,135.12,0,0,1,9.74-12.5,84.66,84.66,0,0,1,10.9-10.46,52.24,52.24,0,0,1,11.7-7.12,30.59,30.59,0,0,1,12.28-2.62,28.41,28.41,0,0,1,9.45,1.53,26.69,26.69,0,0,1,7.63,4.07,19.47,19.47,0,0,1,5.16,6,14.67,14.67,0,0,1,1.89,7.19q0,7.56-4.72,11.41t-13.15,3.85a26.07,26.07,0,0,1-8.36-1.09,38,38,0,0,1-5.67-2.47,56.35,56.35,0,0,0-5.16-2.47,17.09,17.09,0,0,0-6.54-1.09,12.23,12.23,0,0,0-6.18,1.82,28.81,28.81,0,0,0-6.25,5.09,72.43,72.43,0,0,0-6.32,7.7q-3.2,4.44-6.4,9.67V494.42H710.75Z" transform="translate(-101.15 -106.24)" style="fill:#00968c;stroke:#2ab8ae;stroke-miterlimit:1;stroke-width:4px"/><path d="M945.19,494.42h-31.1V473.06q-5.53,4.22-10.83,8.58a89.58,89.58,0,0,1-11.48,8,62.21,62.21,0,0,1-13.66,5.89,60.47,60.47,0,0,1-17.37,2.25,44.1,44.1,0,0,1-16.57-3,37.28,37.28,0,0,1-12.64-8.21,35.27,35.27,0,0,1-8-12.35,42.22,42.22,0,0,1-2.76-15.41,40.18,40.18,0,0,1,4-18.1,49.68,49.68,0,0,1,10.9-14.46,77.17,77.17,0,0,1,16.13-11.34,167.59,167.59,0,0,1,19.55-8.87q10.32-3.92,21.29-7t21.44-5.67v-9.74a66,66,0,0,0-2.11-18,30.69,30.69,0,0,0-6-11.85,22.17,22.17,0,0,0-9.52-6.47,37.85,37.85,0,0,0-12.57-2,34,34,0,0,0-12.79,2,19.88,19.88,0,0,0-7.78,5.38,18.09,18.09,0,0,0-3.85,7.63,37.32,37.32,0,0,0-1,8.65,45.9,45.9,0,0,1-.65,7.85,18.51,18.51,0,0,1-2.4,6.61,13.39,13.39,0,0,1-4.72,4.58,15,15,0,0,1-7.63,1.74,15.27,15.27,0,0,1-11.77-5.23,17.2,17.2,0,0,1-3.34-5.81,22,22,0,0,1-1.16-7.27,23.3,23.3,0,0,1,5.09-14.39,44.38,44.38,0,0,1,13.66-11.56,78.68,78.68,0,0,1,20.06-7.7,100.33,100.33,0,0,1,24.13-2.83q15.4,0,26,3t17.15,8.36a30.78,30.78,0,0,1,9.45,13.08,47.86,47.86,0,0,1,2.91,17Zm-31.1-91q-6.69,2.18-13.88,4.94t-14.1,6.18A137.91,137.91,0,0,0,873,422a72.28,72.28,0,0,0-11,8.5,39,39,0,0,0-7.49,9.59,22,22,0,0,0-2.76,10.61,28.33,28.33,0,0,0,2.11,10.83,30.37,30.37,0,0,0,5.6,9,26.69,26.69,0,0,0,8.07,6.1,21.28,21.28,0,0,0,9.52,2.25,35.26,35.26,0,0,0,10-1.38,49.69,49.69,0,0,0,9.16-3.71,79.38,79.38,0,0,0,8.87-5.45q4.43-3.12,9.08-6.61Z" transform="translate(-101.15 -106.24)" style="fill:#00968c;stroke:#2ab8ae;stroke-miterlimit:1;stroke-width:4px"/><polygon points="428.35 102.06 376.36 89.41 406.33 59.49 428.35 102.06" style="fill:#ef8031"/><polygon points="428.35 102.06 398.93 107.93 376.33 89.49 428.35 102.06" style="fill:#f7931e"/><polygon points="428.35 102.06 396.99 133.25 398.93 107.93 428.35 102.06" style="fill:#f15a24"/><polygon points="398.93 107.93 363.38 102.37 376.36 89.41 398.93 107.93" style="fill:#ef8031"/><polygon points="398.93 107.93 382.27 111.41 368.36 103.15 398.93 107.93" style="fill:#8c6239"/><polygon points="254.43 216.46 291.69 202.25 340.46 259.55 254.43 216.46" style="fill:#24c29d"/><polygon points="291.52 202.25 310.79 133.25 363.38 102.37 372.15 173.42 291.52 202.25" style="fill:#25c77e"/><polygon points="249.37 165.82 258.92 41.16 310.79 133.25 291.69 202.25 249.37 165.82" style="fill:#22b573"/><polygon points="258.92 41.3 281.01 18.99 294.5 67.88 310.79 133.25 258.92 41.3" style="fill:#1d995e"/><polygon points="310.79 133.25 284.85 89.41 294.5 67.88 363.38 102.37 310.79 133.25" style="fill:#39b54a"/><polygon points="291.52 202.25 372.15 173.42 340.46 259.55 291.52 202.25" style="fill:#2ce58c"/><polygon points="254.43 216.46 249.37 165.82 291.69 202.25 254.43 216.46" style="fill:#25c77e"/><polygon points="270.53 292.52 254.43 216.46 340.46 259.55 270.53 292.52" style="fill:#00a99d"/><polygon points="270.53 292.52 261.12 332.91 340.46 259.55 270.53 292.52" style="fill:#2ab8ae"/><polygon points="182.03 45.37 258.92 41.3 249.37 165.82 182.03 45.37" style="fill:#55c690"/><polygon points="138.74 187.46 182.03 45.37 249.37 165.82 138.74 187.46" style="fill:#49ab7c"/><polygon points="182.03 45.37 197.05 0 210.29 43.87 182.03 45.37" style="fill:#2e6b4d"/><polygon points="209.93 43.89 197.05 0 281.01 18.99 258.92 41.16 209.93 43.89" style="fill:#17784a"/><polygon points="101.32 133.25 82.02 82.61 197.05 0 182.03 45.37 101.32 133.25" style="fill:#2b5e45"/><polygon points="75.96 301.19 65.84 318.59 82.02 82.61 101.32 133.25 75.96 301.19" style="fill:#285740"/><polygon points="261.12 332.91 304.8 292.52 324.11 296.23 261.12 332.91" style="fill:#c69c6d"/><polygon points="261.12 332.91 324.11 296.23 310.79 315.9 261.12 332.91" style="fill:#736357"/><polygon points="310.79 315.9 324.11 296.23 345.57 322.79 310.79 315.9" style="fill:#998675"/><polygon points="332.85 320.27 345.57 322.79 321.71 354.42 332.85 320.27" style="fill:#998675"/><polygon points="52.69 455.25 138.74 187.46 194.56 176.54 52.69 455.25" style="fill:#439e73"/><polygon points="101.32 133.25 182.03 45.37 138.74 187.46 101.32 133.25" style="fill:#57a17d"/><polygon points="52.69 455.25 101.32 133.25 138.74 187.46 52.69 455.25" style="fill:#4f9171"/><polygon points="176.54 422.08 254.43 216.46 270.53 292.52 176.54 422.08" style="fill:#27aba2"/><polygon points="0 597.47 228.31 285.43 130.04 435.74 70.59 519.55 0 597.47" style="fill:#196e68"/><polygon points="20.25 665.82 228.19 285.74 176.54 422.08 20.25 665.82" style="fill:#239991"/><polygon points="91.27 536.01 228.19 285.95 8.73 611.25 91.27 536.01" style="fill:#1f8780"/><polygon points="176.54 422.08 270.53 292.52 261.12 332.91 176.54 422.08" style="fill:#2ab8ae"/><polygon points="406.33 59.49 363.38 102.37 372.42 58.74 406.33 59.49"/><polygon points="363.38 102.37 337.98 35.44 372.42 58.74 363.38 102.37" style="fill:#fde92b"/><polygon points="372.42 58.74 337.98 35.44 389.87 44.3 406.33 59.49 372.42 58.74" style="fill:#91be4a"/><polygon points="294.5 67.88 337.98 35.44 363.38 102.37 294.5 67.88" style="fill:#91be4a"/><polygon points="380.51 72.44 376.51 73.79 373.34 71 374.17 66.86 378.17 65.51 381.34 68.3 380.51 72.44" style="fill:#fff"/></svg>