<svg xmlns="http://www.w3.org/2000/svg" viewBox="0 0 1711.36 677.85"><title>ara-with-icon</title><path d="M347,814.47a327.92,327.92,0,1,1,231.88-96A325.78,325.78,0,0,1,347,814.47Z" transform="translate(12.34 -147.62)" style="fill:#f2f2f2"/><path d="M347,169.62a315.86,315.86,0,1,1-123.35,24.9A314.92,314.92,0,0,1,347,169.62m0-22C159.87,147.62,8.12,299.36,8.12,486.54S159.87,825.47,347,825.47,686,673.72,686,486.54,534.23,147.62,347,147.62Z" transform="translate(12.34 -147.62)" style="fill:#22b573"/><polygon points="449.75 279.7 633.1 324.02 449.22 279.27 449.75 279.7" style="fill:none"/><path d="M343.34,150.38a336.06,336.06,0,0,0-227,87.83l31,112.49L301.13,236l183.56,31.34,58.2,53.72,77.87,150.57L509.85,581.92l6.88-89.53-58.93,12.3-49.2-29.22,108.13,16.92L391,472.71,422,724l-36.17,98.31c166.22-20.9,294.8-162.75,294.8-334.64C680.64,301.39,529.63,150.38,343.34,150.38Z" transform="translate(12.34 -147.62)" style="fill:none"/><polygon points="111.9 30.29 112.01 30.18 111.89 30.29 111.9 30.29"/><polygon points="633.1 324.02 555.24 173.45 449.22 279.27 633.1 324.02" style="fill:#ef8031"/><polygon points="529.07 344.77 633.1 324.02 449.75 279.7 529.07 344.77" style="fill:#f7931e"/><polygon points="522.19 434.31 633.1 324.02 529.07 344.77 522.19 434.31" style="fill:#f15a24"/><polygon points="449.75 279.7 449.22 279.27 403.31 325.09 529.07 344.77 449.13 279.55 449.75 279.7" style="fill:#ef8031"/><polygon points="449.13 279.55 529.07 344.77 449.75 279.7 449.13 279.55" style="fill:#ef8031"/><polygon points="470.13 357.07 529.07 344.77 420.94 327.85 470.13 357.07" style="fill:#8c6239"/><path d="M153.84,766.72a336.53,336.53,0,0,0,59,32.07L422,724,391,472.71,205,581.94Z" transform="translate(12.34 -147.62)" style="fill:#25c77e"/><path d="M115.14,422.67,54,314.27A335.7,335.7,0,0,0,6.05,487.67c0,115.86,58.42,218.06,147.41,278.79L205,581.94,113.25,426.89Z" transform="translate(12.34 -147.62)" style="fill:#22b573"/><path d="M153.84,766.72,205,581.94,153.46,766.46Z" transform="translate(12.34 -147.62)" style="fill:#22b573"/><path d="M54.11,314.08,115.2,422.54l32.16-71.84-31-112.49A338.86,338.86,0,0,0,54.11,314.08Z" transform="translate(12.34 -147.62)" style="fill:#1d995e"/><path d="M115.14,422.67l.06-.13L54.11,314.08l-.11.19Z" transform="translate(12.34 -147.62)" style="fill:#1d995e"/><polygon points="403.31 325.09 159.69 203.09 217.31 434.32 403.31 325.09" style="fill:#39b54a"/><polygon points="125.59 279.27 217.31 434.32 127.48 275.05 125.59 279.27" style="fill:#39b54a"/><polygon points="217.31 434.32 159.69 203.09 127.54 274.93 217.31 434.32" style="fill:#39b54a"/><polygon points="217.31 434.32 127.54 274.93 127.48 275.05 217.31 434.32" style="fill:#39b54a"/><path d="M212.87,798.8A336.23,336.23,0,0,0,343.34,825a340.56,340.56,0,0,0,42.5-2.66L422,724Z" transform="translate(12.34 -147.62)" style="fill:#2ce58c"/><polygon points="0.03 549.62 0.02 549.57 0 549.58 0.03 549.62" style="fill:#55c690"/><path d="M391,472.71l45.91-45.82,106-105.82L422.95,318.4Zm38.17-125.58,14.14-4.78,11.21,9.85-2.93,14.64-14.14,4.78-11.21-9.85Z" transform="translate(12.34 -147.62)"/><polygon points="435.29 170.79 313.47 88.38 403.31 325.09 435.29 170.79" style="fill:#fde92b"/><polygon points="555.24 173.45 497.03 119.72 313.47 88.38 435.29 170.79 555.24 173.45" style="fill:#91be4a"/><polygon points="313.47 88.38 159.69 203.09 403.31 325.09 313.47 88.38" style="fill:#91be4a"/><polygon points="463.91 219.22 466.84 204.59 455.63 194.73 441.48 199.51 438.56 214.15 449.77 224.01 463.91 219.22" style="fill:#fff"/><path d="M1046.9,300.24q-15.49-12.74-40.63-19.8t-61.63-7.06a237.7,237.7,0,0,0-57.16,6.71q-27.2,6.71-47.52,18.25t-32.37,27.37q-12.06,15.84-12.05,34.09A52,52,0,0,0,798.3,377a40.75,40.75,0,0,0,7.92,13.77,36.18,36.18,0,0,0,27.89,12.4q11,0,18.08-4.13a31.69,31.69,0,0,0,11.19-10.85,43.82,43.82,0,0,0,5.68-15.67A108.83,108.83,0,0,0,870.61,354,88.37,88.37,0,0,1,873,333.47a42.88,42.88,0,0,1,9.12-18.08q6.72-7.92,18.42-12.74t30.3-4.82a89.63,89.63,0,0,1,29.78,4.65A52.52,52.52,0,0,1,983.2,317.8c6.2,7.12,11.23,16.47,14.56,28.06s5.26,25.77,5.26,42.52v23.07c-17,4.13-33.73,8.61-51.06,13.43s-34.28,10.33-50.58,16.53a397.7,397.7,0,0,0-46.38,21,183,183,0,0,0-38.25,26.86,117.74,117.74,0,0,0-25.84,34.26q-9.47,19.11-9.48,42.87A100,100,0,0,0,788,602.9a83.52,83.52,0,0,0,18.94,29.27,88.36,88.36,0,0,0,30,19.45q17.56,7.05,39.25,7.06,23.41,0,41.14-5.34a147.24,147.24,0,0,0,32.37-13.94,215.24,215.24,0,0,0,27.47-18.94c8.38-6.89,16.92-13.65,25.92-20.31v51.37h73v-280c0-14.69-2.22-28.11-6.81-40.29A72.77,72.77,0,0,0,1046.9,300.24Zm-43.88,273c-8,5.51-14.79,10.73-21.79,15.67a189.38,189.38,0,0,1-21.14,12.91,118.31,118.31,0,0,1-21.76,8.78,83.79,83.79,0,0,1-23.62,3.27,50.49,50.49,0,0,1-22.57-5.34A63.27,63.27,0,0,1,873,594.12a72,72,0,0,1-13.26-21.35,67.18,67.18,0,0,1-5-25.65A52,52,0,0,1,861.31,522,92.56,92.56,0,0,1,879,499.26a171.25,171.25,0,0,1,26-20.14,326.41,326.41,0,0,1,31.16-17.56c10.9-5.39,22.31-10.27,33.67-14.63S992,438.66,1003,435.21Z" transform="translate(12.34 -147.62)" style="fill:#22b573"/><path d="M1362.53,286.64a63.25,63.25,0,0,0-18.08-9.64,67.3,67.3,0,0,0-22.38-3.62,72.46,72.46,0,0,0-29.09,6.2,123.81,123.81,0,0,0-27.72,16.87,202,202,0,0,0-26,24.79c-8.26,9.42-15.24,19.28-23.24,29.61V280.51h-73v371h73V394.58c5-8.26,10.27-15.89,15.33-22.9a171.94,171.94,0,0,1,15.07-18.25,68.49,68.49,0,0,1,14.85-12.05,29.06,29.06,0,0,1,14.66-4.3q9.3,0,15.5,2.58a132.73,132.73,0,0,1,12.23,5.85,90.33,90.33,0,0,0,13.43,5.85q7.4,2.58,19.8,2.58,20,0,31.16-9.13t11.19-27a34.75,34.75,0,0,0-4.48-17A46.12,46.12,0,0,0,1362.53,286.64Z" transform="translate(12.34 -147.62)" style="fill:#22b573"/><path d="M1692,331.23a73.08,73.08,0,0,0-22.44-31q-15.49-12.74-40.66-19.8t-61.65-7.06a237.77,237.77,0,0,0-57.17,6.71q-27.2,6.71-47.52,18.25t-32.37,27.37q-12.06,15.84-12.05,34.09A52,52,0,0,0,1420.9,377a40.75,40.75,0,0,0,7.92,13.77,36.18,36.18,0,0,0,27.89,12.4q11,0,18.08-4.13A31.69,31.69,0,0,0,1486,388.21a43.82,43.82,0,0,0,5.68-15.67A108.83,108.83,0,0,0,1493.2,354a88.37,88.37,0,0,1,2.41-20.49,42.88,42.88,0,0,1,9.12-18.08q6.72-7.92,18.42-12.74t30.3-4.82a89.63,89.63,0,0,1,29.78,4.65,52.52,52.52,0,0,1,22.55,15.32q9.3,10.68,14.26,28.06t5,42.52v23.07c-17,4.13-33.43,8.61-50.76,13.43s-34.13,10.33-50.43,16.53a396.54,396.54,0,0,0-46.3,21,182.72,182.72,0,0,0-38.22,26.86,117.67,117.67,0,0,0-25.82,34.26Q1404,542.64,1404,566.4a100,100,0,0,0,6.54,36.5,83.52,83.52,0,0,0,18.94,29.27,88.36,88.36,0,0,0,30,19.45q17.56,7.05,39.25,7.06,23.41,0,41.15-5.34a147.24,147.24,0,0,0,32.37-13.94,211.8,211.8,0,0,0,27.17-18.94c8.38-6.89,16.62-13.65,25.62-20.31v51.37h74v-280A113.37,113.37,0,0,0,1692,331.23Zm-67,242.06c-7,5.51-14.49,10.73-21.49,15.67a187.8,187.8,0,0,1-21,12.91,117.63,117.63,0,0,1-21.68,8.78,83.53,83.53,0,0,1-23.58,3.27,50.41,50.41,0,0,1-22.55-5.34,63.23,63.23,0,0,1-19.11-14.46,72,72,0,0,1-13.26-21.35,67.18,67.18,0,0,1-5-25.65A52,52,0,0,1,1483.9,522a92.56,92.56,0,0,1,17.73-22.73,171.25,171.25,0,0,1,26-20.14,326.43,326.43,0,0,1,31.16-17.56q16.35-8.09,33.37-14.63c11.36-4.36,22.85-8.26,32.85-11.71Z" transform="translate(12.34 -147.62)" style="fill:#22b573"/></svg>