<svg id="Layer_1" data-name="Layer 1" xmlns="http://www.w3.org/2000/svg" width="61" height="24" viewBox="0 0 1711.358 677.849"><title>ara-with-icon</title><path d="M347.049,814.465a327.925,327.925,0,1,1,231.878-96.047A325.78,325.78,0,0,1,347.049,814.465Z" transform="translate(12.34 -147.616)" style="fill:#f2f2f2"/><path d="M347.049,169.616a315.863,315.863,0,1,1-123.355,24.9,314.922,314.922,0,0,1,123.355-24.9m0-22c-187.183,0-338.925,151.742-338.925,338.925S159.866,825.466,347.049,825.466,685.974,673.724,685.974,486.541,534.232,147.616,347.049,147.616Z" transform="translate(12.34 -147.616)" style="fill:#22b573"/><polygon points="449.745 279.701 633.103 324.017 449.219 279.27 449.745 279.701" style="fill:none"/><path d="M343.344,150.381A336.063,336.063,0,0,0,116.33,238.214l31.025,112.493L301.134,236l183.559,31.339,58.2,53.725,77.867,150.571L509.851,581.921l6.88-89.533-58.935,12.3-49.2-29.22,108.131,16.92L390.972,472.71,422.015,724,385.84,822.311c166.22-20.9,294.8-162.749,294.8-334.636C680.637,301.393,529.626,150.381,343.344,150.381Z" transform="translate(12.34 -147.616)" style="fill:none"/><polygon points="111.896 30.291 112.006 30.18 111.895 30.291 111.896 30.291"/><polygon points="633.103 324.017 555.235 173.446 449.219 279.27 633.103 324.017" style="fill:#ef8031"/><polygon points="529.07 344.772 633.103 324.017 449.745 279.701 529.07 344.772" style="fill:#f7931e"/><polygon points="522.19 434.305 633.103 324.017 529.07 344.772 522.19 434.305" style="fill:#f15a24"/><polygon points="449.745 279.701 449.219 279.27 403.312 325.094 529.07 344.772 449.129 279.552 449.745 279.701" style="fill:#ef8031"/><polygon points="449.129 279.552 529.07 344.772 449.745 279.701 449.129 279.552" style="fill:#ef8031"/><polygon points="470.135 357.072 529.07 344.772 420.939 327.852 470.135 357.072" style="fill:#8c6239"/><path d="M153.837,766.724A336.528,336.528,0,0,0,212.87,798.8L422.015,724,390.972,472.71l-186,109.231Z" transform="translate(12.34 -147.616)" style="fill:#25c77e"/><path d="M115.14,422.67,54,314.267A335.7,335.7,0,0,0,6.05,487.675c0,115.859,58.424,218.062,147.409,278.787L204.969,581.94,113.253,426.886Z" transform="translate(12.34 -147.616)" style="fill:#22b573"/><path d="M153.837,766.724,204.969,581.94,153.459,766.462C153.586,766.548,153.71,766.638,153.837,766.724Z" transform="translate(12.34 -147.616)" style="fill:#22b573"/><path d="M54.112,314.078,115.2,422.542l32.158-71.835L116.33,238.214A338.858,338.858,0,0,0,54.112,314.078Z" transform="translate(12.34 -147.616)" style="fill:#1d995e"/><path d="M115.14,422.67l.057-.128L54.112,314.078c-.038.063-.074.126-.112.189Z" transform="translate(12.34 -147.616)" style="fill:#1d995e"/><polygon points="403.312 325.094 159.695 203.09 217.308 434.324 403.312 325.094" style="fill:#39b54a"/><polygon points="125.592 279.27 217.308 434.324 127.48 275.054 125.592 279.27" style="fill:#39b54a"/><polygon points="217.308 434.324 159.695 203.09 127.537 274.926 217.308 434.324" style="fill:#39b54a"/><polygon points="217.308 434.324 127.537 274.926 127.48 275.054 217.308 434.324" style="fill:#39b54a"/><path d="M212.87,798.8a336.234,336.234,0,0,0,130.474,26.173,340.561,340.561,0,0,0,42.5-2.657L422.015,724Z" transform="translate(12.34 -147.616)" style="fill:#2ce58c"/><polygon points="0.025 549.621 0.023 549.571 0 549.576 0.025 549.621" style="fill:#55c690"/><path d="M390.972,472.71l45.907-45.824L542.9,321.062,422.947,318.4ZM429.143,347.13l14.142-4.784L454.5,352.2l-2.927,14.639-14.142,4.784-11.214-9.855Z" transform="translate(12.34 -147.616)"/><polygon points="435.287 170.787 313.474 88.382 403.312 325.094 435.287 170.787" style="fill:#fde92b"/><polygon points="555.235 173.446 497.033 119.721 313.474 88.382 435.287 170.787 555.235 173.446" style="fill:#91be4a"/><polygon points="313.474 88.382 159.695 203.09 403.312 325.094 313.474 88.382" style="fill:#91be4a"/><polygon points="463.911 219.224 466.839 204.585 455.625 194.73 441.483 199.514 438.556 214.153 449.77 224.008 463.911 219.224" style="fill:#fff"/><path d="M1046.9,300.238q-15.494-12.735-40.63-19.8t-61.634-7.059a237.7,237.7,0,0,0-57.157,6.714q-27.2,6.714-47.516,18.249t-32.366,27.373q-12.056,15.843-12.051,34.089a51.97,51.97,0,0,0,2.755,17.216,40.754,40.754,0,0,0,7.92,13.772,36.183,36.183,0,0,0,27.889,12.4q11.016,0,18.078-4.134a31.689,31.689,0,0,0,11.189-10.846,43.82,43.82,0,0,0,5.683-15.667,108.831,108.831,0,0,0,1.549-18.593,88.371,88.371,0,0,1,2.409-20.488,42.877,42.877,0,0,1,9.123-18.077q6.716-7.916,18.422-12.74t30.3-4.821a89.629,89.629,0,0,1,29.784,4.648A52.516,52.516,0,0,1,983.2,317.8c6.2,7.118,11.229,16.474,14.558,28.062s5.263,25.77,5.263,42.525v23.07c-17,4.132-33.728,8.607-51.058,13.428s-34.282,10.329-50.576,16.527a397.7,397.7,0,0,0-46.378,21,182.991,182.991,0,0,0-38.254,26.858,117.741,117.741,0,0,0-25.842,34.259q-9.473,19.111-9.478,42.868a100.027,100.027,0,0,0,6.539,36.5,83.516,83.516,0,0,0,18.936,29.267,88.359,88.359,0,0,0,29.954,19.455q17.562,7.052,39.252,7.058,23.411,0,41.145-5.337a147.241,147.241,0,0,0,32.366-13.944A215.245,215.245,0,0,0,977.1,620.457c8.377-6.887,16.922-13.654,25.922-20.315V651.51h73v-280c0-14.687-2.225-28.115-6.814-40.286A72.767,72.767,0,0,0,1046.9,300.238Zm-43.878,273.048c-8,5.508-14.789,10.732-21.79,15.667a189.378,189.378,0,0,1-21.139,12.911,118.314,118.314,0,0,1-21.759,8.78,83.788,83.788,0,0,1-23.619,3.272,50.489,50.489,0,0,1-22.57-5.337,63.273,63.273,0,0,1-19.117-14.461,72,72,0,0,1-13.261-21.348,67.179,67.179,0,0,1-4.994-25.652,52,52,0,0,1,6.54-25.136,92.558,92.558,0,0,1,17.732-22.726,171.251,171.251,0,0,1,26-20.142,326.41,326.41,0,0,1,31.159-17.56c10.9-5.392,22.307-10.27,33.669-14.634s22.152-8.263,33.152-11.708Z" transform="translate(12.34 -147.616)" style="fill:#22b573"/><path d="M1362.535,286.637A63.253,63.253,0,0,0,1344.457,277a67.3,67.3,0,0,0-22.381-3.615,72.46,72.46,0,0,0-29.095,6.2,123.812,123.812,0,0,0-27.718,16.872,201.948,201.948,0,0,0-26,24.791c-8.263,9.415-15.244,19.283-23.244,29.612V280.51h-73v371h73V394.583c5-8.263,10.274-15.892,15.326-22.9a171.942,171.942,0,0,1,15.065-18.249,68.494,68.494,0,0,1,14.851-12.051,29.055,29.055,0,0,1,14.656-4.3q9.3,0,15.5,2.582a132.731,132.731,0,0,1,12.228,5.854,90.327,90.327,0,0,0,13.433,5.854q7.4,2.583,19.8,2.582,19.965,0,31.161-9.125t11.192-27.029a34.753,34.753,0,0,0-4.477-17.044A46.124,46.124,0,0,0,1362.535,286.637Z" transform="translate(12.34 -147.616)" style="fill:#22b573"/><path d="M1692,331.227a73.079,73.079,0,0,0-22.444-30.989q-15.494-12.735-40.662-19.8-25.138-7.053-61.65-7.059a237.771,237.771,0,0,0-57.166,6.714q-27.2,6.714-47.52,18.249t-32.368,27.373q-12.056,15.843-12.052,34.089a51.97,51.97,0,0,0,2.755,17.216,40.754,40.754,0,0,0,7.919,13.772,36.182,36.182,0,0,0,27.889,12.4q11.016,0,18.078-4.134a31.69,31.69,0,0,0,11.189-10.846,43.821,43.821,0,0,0,5.683-15.667,108.831,108.831,0,0,0,1.549-18.593,88.371,88.371,0,0,1,2.409-20.488,42.877,42.877,0,0,1,9.123-18.077q6.716-7.916,18.422-12.74t30.3-4.821a89.628,89.628,0,0,1,29.784,4.648A52.516,52.516,0,0,1,1605.8,317.8q9.3,10.676,14.258,28.062,4.99,17.391,4.964,42.525v23.07c-17,4.132-33.428,8.607-50.758,13.428s-34.132,10.329-50.427,16.527a396.535,396.535,0,0,0-46.3,21,182.717,182.717,0,0,0-38.216,26.858,117.675,117.675,0,0,0-25.823,34.259q-9.473,19.111-9.468,42.868a100.029,100.029,0,0,0,6.544,36.5,83.521,83.521,0,0,0,18.938,29.267,88.365,88.365,0,0,0,29.955,19.455q17.562,7.052,39.253,7.058,23.411,0,41.146-5.337a147.242,147.242,0,0,0,32.366-13.944,211.8,211.8,0,0,0,27.172-18.938c8.377-6.887,16.622-13.654,25.622-20.315V651.51h74v-280A113.367,113.367,0,0,0,1692,331.227Zm-66.985,242.059c-7,5.508-14.49,10.732-21.491,15.667a187.8,187.8,0,0,1-20.989,12.911,117.631,117.631,0,0,1-21.684,8.78,83.528,83.528,0,0,1-23.583,3.272,50.412,50.412,0,0,1-22.552-5.337,63.235,63.235,0,0,1-19.108-14.461,71.993,71.993,0,0,1-13.257-21.348,67.177,67.177,0,0,1-4.992-25.652,52,52,0,0,1,6.541-25.136,92.56,92.56,0,0,1,17.733-22.726,171.253,171.253,0,0,1,26-20.142,326.426,326.426,0,0,1,31.16-17.56q16.351-8.089,33.369-14.634c11.362-4.357,22.853-8.263,32.853-11.708Z" transform="translate(12.34 -147.616)" style="fill:#22b573"/></svg>