<svg xmlns="http://www.w3.org/2000/svg" height="99" width="250"><path d="M52.493 97.393a47.903 47.893 0 1 1 33.873-14.02 47.59 47.58 0 0 1-33.873 14.02z" fill="#f2f2f2"/><path d="M52.493 3.213a46.141 46.131 0 1 1-18.02 3.637 46.004 45.994 0 0 1 18.02-3.637m0-3.213C25.157 0 2.989 22.162 2.989 49.5c0 27.337 22.168 49.5 49.504 49.5s49.52-22.163 49.52-49.5c0-27.338-22.17-49.5-49.52-49.5z" fill="#22b573"/><path fill="none" d="M65.622 40.787l.078.063 26.784 6.473z"/><path d="M51.958.403a49.092 49.082 0 0 0-33.16 12.828l4.528 16.429 22.466-16.752 26.814 4.577 8.502 7.846 11.376 21.99L76.282 63.43l1.005-13.076-8.609 1.796-7.187-4.267 15.796 2.47L58.92 47.48 63.45 84.18l-5.284 14.358c24.281-3.052 43.064-23.77 43.064-48.874C101.23 22.458 79.171.404 51.958.404z" fill="none"/><path d="M16.345 4.424h.001l.016-.016z"/><path fill="#ef8031" d="M65.622 40.787l26.862 6.536-11.374-21.99z"/><path fill="#f7931e" d="M65.7 40.85l11.587 9.504 15.197-3.03z"/><path fill="#f15a24" d="M77.287 50.354L76.282 63.43l16.202-16.108z"/><path fill="#ef8031" d="M65.7 40.85l-.078-.063-6.706 6.692 18.37 2.875-11.677-9.526z"/><path fill="#ef8031" d="M65.7 40.85l-.09-.022 11.677 9.526z"/><path fill="#8c6239" d="M61.491 47.882l7.186 4.268 8.61-1.796z"/><path d="M24.276 90.42a49.16 49.15 0 0 0 8.618 4.683L63.45 84.18l-4.529-36.7-27.17 15.952z" fill="#25c77e"/><path d="M18.622 40.171L9.691 24.34a49.04 49.029 0 0 0-7.005 25.325c0 16.922 8.534 31.848 21.534 40.718l7.53-26.95-13.404-22.645z" fill="#22b573"/><path d="M24.276 90.42l7.473-26.988-7.529 26.95z" fill="#22b573"/><path d="M9.707 24.311l8.924 15.841L23.33 29.66l-4.528-16.43a49.5 49.49 0 0 0-9.094 11.081z" fill="#1d995e"/><path d="M18.622 40.171l.01-.019-8.925-15.84-.016.027z" fill="#1d995e"/><path fill="#39b54a" d="M31.745 63.432l27.17-15.953-35.587-17.818zM18.622 40.171l-.276.616 13.399 22.645zM18.631 40.154l13.114 23.278-8.417-33.77z"/><path fill="#39b54a" d="M18.622 40.171l13.123 23.261L18.63 40.154z"/><path d="M32.899 95.105a49.117 49.106 0 0 0 19.059 3.826 49.75 49.739 0 0 0 6.208-.388L63.45 84.18z" fill="#2ce58c"/><path fill="#55c690" d="M0 80.266l.004.006-.001-.007z"/><path d="M58.92 47.48l6.707-6.693L81.11 25.332l-17.524-.39zm5.576-18.342l2.066-.698 1.637 1.439-.428 2.138-2.065.698-1.638-1.438z"/><path fill="#fde92b" d="M58.916 47.48l4.671-22.536-17.795-12.036z"/><path fill="#91be4a" d="M72.606 17.485l-26.814-4.577 17.795 12.036 17.523.388z"/><path fill="#91be4a" d="M58.916 47.48L45.792 12.907 23.328 29.66z"/><path fill="#fff" d="M65.703 32.717l2.065-.7.428-2.137-1.637-1.44-2.067.698-.427 2.139z"/><path d="M154.734 22.29q-2.262-1.86-5.935-2.892-3.672-1.03-9.003-1.03a34.723 34.716 0 0 0-8.35.98q-3.973.98-6.942 2.665-2.968 1.685-4.728 3.997-1.762 2.313-1.76 4.979a7.596 7.595 0 0 0 .403 2.512 5.953 5.952 0 0 0 1.157 2.011 5.285 5.284 0 0 0 4.074 1.811q1.607 0 2.641-.603a4.63 4.628 0 0 0 1.635-1.585 6.401 6.4 0 0 0 .83-2.288 15.898 15.895 0 0 0 .226-2.705 12.91 12.906 0 0 1 .349-2.999 6.264 6.263 0 0 1 1.332-2.64q.982-1.157 2.691-1.86 1.71-.705 4.426-.705a13.093 13.09 0 0 1 4.35.68 7.672 7.67 0 0 1 3.3 2.237c.905 1.04 1.64 2.405 2.126 4.098s.768 3.764.768 6.21v3.37a232.732 232.732 0 0 0-7.458 1.96 84.556 84.556 0 0 0-7.39 2.415 58.096 58.084 0 0 0-6.774 3.067 26.733 26.727 0 0 0-5.588 3.923 17.2 17.196 0 0 0-3.775 5.004q-1.383 2.79-1.385 6.26a14.608 14.605 0 0 0 .96 5.332 12.2 12.198 0 0 0 2.767 4.275 12.908 12.905 0 0 0 4.382 2.84q2.565 1.03 5.734 1.031 3.42 0 6.01-.78a21.509 21.504 0 0 0 4.728-2.036 31.442 31.436 0 0 0 4.013-2.766 93.728 93.728 0 0 1 3.787-2.966v7.503h10.663V32.7c0-2.146-.324-4.106-.994-5.885a10.63 10.628 0 0 0-3.27-4.526zm-6.41 39.872c-1.168.805-2.16 1.567-3.183 2.288a27.665 27.659 0 0 1-3.088 1.886 17.283 17.28 0 0 1-3.179 1.282 12.24 12.238 0 0 1-3.45.478 7.376 7.374 0 0 1-3.297-.78 9.243 9.24 0 0 1-2.796-2.105 10.518 10.516 0 0 1-1.937-3.118 9.814 9.812 0 0 1-.73-3.746 7.596 7.595 0 0 1 .96-3.669 13.521 13.518 0 0 1 2.583-3.321 25.016 25.011 0 0 1 3.799-2.941 47.682 47.672 0 0 1 4.551-2.565c1.593-.787 3.26-1.5 4.919-2.137a81.66 81.66 0 0 1 4.845-1.711zM200.842 20.304a9.24 9.238 0 0 0-2.641-1.408 9.831 9.83 0 0 0-3.27-.529 10.585 10.583 0 0 0-4.25.906 18.086 18.082 0 0 0-4.048 2.464 29.508 29.502 0 0 0-3.799 3.62c-1.206 1.376-2.226 2.816-3.394 4.325V19.409h-10.664v54.184h10.664V36.07a49.6 49.6 0 0 1 2.239-3.345 25.117 25.112 0 0 1 2.201-2.665 10.005 10.003 0 0 1 2.17-1.76 4.245 4.244 0 0 1 2.141-.628q1.359 0 2.264.376a19.39 19.385 0 0 1 1.787.855 13.195 13.193 0 0 0 1.962.854q1.08.377 2.892.377 2.922 0 4.552-1.333 1.63-1.334 1.635-3.944a5.076 5.075 0 0 0-.655-2.483 6.737 6.736 0 0 0-1.786-2.07zM248.971 26.816a10.676 10.673 0 0 0-3.278-4.527q-2.263-1.861-5.94-2.892-3.677-1.031-9.006-1.031a34.734 34.726 0 0 0-8.351.98q-3.973.98-6.942 2.665-2.968 1.686-4.728 3.998-1.762 2.313-1.76 4.978a7.596 7.595 0 0 0 .403 2.514 5.953 5.952 0 0 0 1.157 2.011 5.285 5.284 0 0 0 4.074 1.811q1.607 0 2.64-.603a4.63 4.628 0 0 0 1.638-1.582 6.401 6.4 0 0 0 .83-2.288 15.898 15.895 0 0 0 .222-2.708 12.91 12.906 0 0 1 .352-2.993 6.264 6.263 0 0 1 1.332-2.64q.982-1.157 2.691-1.861 1.71-.704 4.427-.704a13.093 13.09 0 0 1 4.35.68 7.672 7.67 0 0 1 3.294 2.237q1.358 1.56 2.083 4.098.725 2.538.73 6.21v3.37c-2.483.602-4.883 1.257-7.415 1.96a84.074 84.074 0 0 0-7.366 2.415 57.927 57.915 0 0 0-6.764 3.067 26.692 26.686 0 0 0-5.583 3.923 17.19 17.186 0 0 0-3.772 5.004q-1.39 2.785-1.39 6.255a14.608 14.605 0 0 0 .956 5.33 12.2 12.198 0 0 0 2.767 4.276 12.908 12.905 0 0 0 4.382 2.84q2.566 1.03 5.734 1.031 3.42 0 6.011-.78a21.509 21.504 0 0 0 4.729-2.036 30.94 30.933 0 0 0 3.969-2.766c1.224-1.006 2.428-1.993 3.742-2.966v7.503H250V32.7a16.561 16.558 0 0 0-1.028-5.885zm-9.787 35.353c-1.023.805-2.117 1.567-3.14 2.289a27.434 27.428 0 0 1-3.067 1.885 17.183 17.18 0 0 1-3.167 1.283 12.202 12.2 0 0 1-3.445.477 7.364 7.362 0 0 1-3.294-.78 9.237 9.235 0 0 1-2.792-2.112 10.518 10.516 0 0 1-1.937-3.118 9.814 9.812 0 0 1-.73-3.746 7.596 7.595 0 0 1 .96-3.669 13.521 13.518 0 0 1 2.59-3.32 25.016 25.011 0 0 1 3.798-2.941 47.685 47.675 0 0 1 4.552-2.565q2.388-1.181 4.874-2.136c1.66-.637 3.338-1.207 4.8-1.71z" fill="#22b573"/></svg>